<mxfile host="app.diagrams.net" agent="Mozilla/5.0 (Windows NT 10.0; Win64; x64) AppleWebKit/537.36 (KHTML, like Gecko) Chrome/131.0.0.0 Safari/537.36" version="25.0.1">
  <diagram name="หน้า-1" id="xr1G19590Jq9p0O4rbUh">
    <mxGraphModel dx="1050" dy="530" grid="1" gridSize="10" guides="1" tooltips="1" connect="1" arrows="1" fold="1" page="1" pageScale="1" pageWidth="827" pageHeight="1169" math="0" shadow="0">
      <root>
        <mxCell id="0" />
        <mxCell id="1" parent="0" />
        <mxCell id="e0GezqwCtZijVtyDzx-G-1" value="" style="edgeStyle=orthogonalEdgeStyle;rounded=0;orthogonalLoop=1;jettySize=auto;html=1;" edge="1" parent="1" source="e0GezqwCtZijVtyDzx-G-2" target="e0GezqwCtZijVtyDzx-G-4">
          <mxGeometry relative="1" as="geometry" />
        </mxCell>
        <mxCell id="e0GezqwCtZijVtyDzx-G-2" value="Start" style="ellipse;whiteSpace=wrap;html=1;" vertex="1" parent="1">
          <mxGeometry x="40" y="40" width="120" height="80" as="geometry" />
        </mxCell>
        <mxCell id="e0GezqwCtZijVtyDzx-G-3" value="" style="edgeStyle=orthogonalEdgeStyle;rounded=0;orthogonalLoop=1;jettySize=auto;html=1;" edge="1" parent="1" source="e0GezqwCtZijVtyDzx-G-4" target="e0GezqwCtZijVtyDzx-G-7">
          <mxGeometry relative="1" as="geometry" />
        </mxCell>
        <mxCell id="e0GezqwCtZijVtyDzx-G-4" value="Input score" style="shape=parallelogram;perimeter=parallelogramPerimeter;whiteSpace=wrap;html=1;fixedSize=1;" vertex="1" parent="1">
          <mxGeometry x="40" y="210" width="120" height="60" as="geometry" />
        </mxCell>
        <mxCell id="e0GezqwCtZijVtyDzx-G-5" value="F" style="edgeStyle=orthogonalEdgeStyle;rounded=0;orthogonalLoop=1;jettySize=auto;html=1;" edge="1" parent="1" source="e0GezqwCtZijVtyDzx-G-7" target="e0GezqwCtZijVtyDzx-G-10">
          <mxGeometry relative="1" as="geometry" />
        </mxCell>
        <mxCell id="e0GezqwCtZijVtyDzx-G-6" value="T" style="edgeStyle=orthogonalEdgeStyle;rounded=0;orthogonalLoop=1;jettySize=auto;html=1;" edge="1" parent="1" source="e0GezqwCtZijVtyDzx-G-7" target="e0GezqwCtZijVtyDzx-G-32">
          <mxGeometry relative="1" as="geometry" />
        </mxCell>
        <mxCell id="e0GezqwCtZijVtyDzx-G-7" value="score = 0-49" style="rhombus;whiteSpace=wrap;html=1;" vertex="1" parent="1">
          <mxGeometry x="60" y="340" width="80" height="80" as="geometry" />
        </mxCell>
        <mxCell id="e0GezqwCtZijVtyDzx-G-8" value="F" style="edgeStyle=orthogonalEdgeStyle;rounded=0;orthogonalLoop=1;jettySize=auto;html=1;" edge="1" parent="1" source="e0GezqwCtZijVtyDzx-G-10" target="e0GezqwCtZijVtyDzx-G-13">
          <mxGeometry relative="1" as="geometry" />
        </mxCell>
        <mxCell id="e0GezqwCtZijVtyDzx-G-9" value="T" style="edgeStyle=orthogonalEdgeStyle;rounded=0;orthogonalLoop=1;jettySize=auto;html=1;" edge="1" parent="1" source="e0GezqwCtZijVtyDzx-G-10" target="e0GezqwCtZijVtyDzx-G-34">
          <mxGeometry relative="1" as="geometry" />
        </mxCell>
        <mxCell id="e0GezqwCtZijVtyDzx-G-10" value="score = 50-54" style="rhombus;whiteSpace=wrap;html=1;" vertex="1" parent="1">
          <mxGeometry x="220" y="340" width="80" height="80" as="geometry" />
        </mxCell>
        <mxCell id="e0GezqwCtZijVtyDzx-G-11" value="F" style="edgeStyle=orthogonalEdgeStyle;rounded=0;orthogonalLoop=1;jettySize=auto;html=1;" edge="1" parent="1" source="e0GezqwCtZijVtyDzx-G-13" target="e0GezqwCtZijVtyDzx-G-16">
          <mxGeometry relative="1" as="geometry" />
        </mxCell>
        <mxCell id="e0GezqwCtZijVtyDzx-G-12" value="T" style="edgeStyle=orthogonalEdgeStyle;rounded=0;orthogonalLoop=1;jettySize=auto;html=1;" edge="1" parent="1" source="e0GezqwCtZijVtyDzx-G-13" target="e0GezqwCtZijVtyDzx-G-36">
          <mxGeometry relative="1" as="geometry" />
        </mxCell>
        <mxCell id="e0GezqwCtZijVtyDzx-G-13" value="score = 55-59" style="rhombus;whiteSpace=wrap;html=1;" vertex="1" parent="1">
          <mxGeometry x="380" y="340" width="80" height="80" as="geometry" />
        </mxCell>
        <mxCell id="e0GezqwCtZijVtyDzx-G-14" value="F" style="edgeStyle=orthogonalEdgeStyle;rounded=0;orthogonalLoop=1;jettySize=auto;html=1;" edge="1" parent="1" source="e0GezqwCtZijVtyDzx-G-16" target="e0GezqwCtZijVtyDzx-G-19">
          <mxGeometry relative="1" as="geometry" />
        </mxCell>
        <mxCell id="e0GezqwCtZijVtyDzx-G-15" value="T" style="edgeStyle=orthogonalEdgeStyle;rounded=0;orthogonalLoop=1;jettySize=auto;html=1;" edge="1" parent="1" source="e0GezqwCtZijVtyDzx-G-16" target="e0GezqwCtZijVtyDzx-G-38">
          <mxGeometry relative="1" as="geometry" />
        </mxCell>
        <mxCell id="e0GezqwCtZijVtyDzx-G-16" value="score = 60-64" style="rhombus;whiteSpace=wrap;html=1;" vertex="1" parent="1">
          <mxGeometry x="540" y="340" width="80" height="80" as="geometry" />
        </mxCell>
        <mxCell id="e0GezqwCtZijVtyDzx-G-17" value="F" style="edgeStyle=orthogonalEdgeStyle;rounded=0;orthogonalLoop=1;jettySize=auto;html=1;" edge="1" parent="1" source="e0GezqwCtZijVtyDzx-G-19" target="e0GezqwCtZijVtyDzx-G-22">
          <mxGeometry relative="1" as="geometry" />
        </mxCell>
        <mxCell id="e0GezqwCtZijVtyDzx-G-18" value="T" style="edgeStyle=orthogonalEdgeStyle;rounded=0;orthogonalLoop=1;jettySize=auto;html=1;" edge="1" parent="1" source="e0GezqwCtZijVtyDzx-G-19" target="e0GezqwCtZijVtyDzx-G-40">
          <mxGeometry relative="1" as="geometry" />
        </mxCell>
        <mxCell id="e0GezqwCtZijVtyDzx-G-19" value="score = 65-69" style="rhombus;whiteSpace=wrap;html=1;" vertex="1" parent="1">
          <mxGeometry x="700" y="340" width="80" height="80" as="geometry" />
        </mxCell>
        <mxCell id="e0GezqwCtZijVtyDzx-G-20" value="F" style="edgeStyle=orthogonalEdgeStyle;rounded=0;orthogonalLoop=1;jettySize=auto;html=1;" edge="1" parent="1" source="e0GezqwCtZijVtyDzx-G-22" target="e0GezqwCtZijVtyDzx-G-25">
          <mxGeometry relative="1" as="geometry" />
        </mxCell>
        <mxCell id="e0GezqwCtZijVtyDzx-G-21" value="T" style="edgeStyle=orthogonalEdgeStyle;rounded=0;orthogonalLoop=1;jettySize=auto;html=1;" edge="1" parent="1" source="e0GezqwCtZijVtyDzx-G-22" target="e0GezqwCtZijVtyDzx-G-42">
          <mxGeometry relative="1" as="geometry" />
        </mxCell>
        <mxCell id="e0GezqwCtZijVtyDzx-G-22" value="score = 70-74" style="rhombus;whiteSpace=wrap;html=1;" vertex="1" parent="1">
          <mxGeometry x="860" y="340" width="80" height="80" as="geometry" />
        </mxCell>
        <mxCell id="e0GezqwCtZijVtyDzx-G-23" value="F" style="edgeStyle=orthogonalEdgeStyle;rounded=0;orthogonalLoop=1;jettySize=auto;html=1;" edge="1" parent="1" source="e0GezqwCtZijVtyDzx-G-25" target="e0GezqwCtZijVtyDzx-G-28">
          <mxGeometry relative="1" as="geometry" />
        </mxCell>
        <mxCell id="e0GezqwCtZijVtyDzx-G-24" value="T" style="edgeStyle=orthogonalEdgeStyle;rounded=0;orthogonalLoop=1;jettySize=auto;html=1;" edge="1" parent="1" source="e0GezqwCtZijVtyDzx-G-25" target="e0GezqwCtZijVtyDzx-G-44">
          <mxGeometry relative="1" as="geometry" />
        </mxCell>
        <mxCell id="e0GezqwCtZijVtyDzx-G-25" value="score = 75-79" style="rhombus;whiteSpace=wrap;html=1;" vertex="1" parent="1">
          <mxGeometry x="1020" y="340" width="80" height="80" as="geometry" />
        </mxCell>
        <mxCell id="e0GezqwCtZijVtyDzx-G-26" value="F" style="edgeStyle=orthogonalEdgeStyle;rounded=0;orthogonalLoop=1;jettySize=auto;html=1;" edge="1" parent="1" source="e0GezqwCtZijVtyDzx-G-28" target="e0GezqwCtZijVtyDzx-G-30">
          <mxGeometry relative="1" as="geometry" />
        </mxCell>
        <mxCell id="e0GezqwCtZijVtyDzx-G-27" value="T" style="edgeStyle=orthogonalEdgeStyle;rounded=0;orthogonalLoop=1;jettySize=auto;html=1;" edge="1" parent="1" source="e0GezqwCtZijVtyDzx-G-28" target="e0GezqwCtZijVtyDzx-G-46">
          <mxGeometry relative="1" as="geometry" />
        </mxCell>
        <mxCell id="e0GezqwCtZijVtyDzx-G-28" value="score = 80-100" style="rhombus;whiteSpace=wrap;html=1;" vertex="1" parent="1">
          <mxGeometry x="1180" y="340" width="86" height="80" as="geometry" />
        </mxCell>
        <mxCell id="e0GezqwCtZijVtyDzx-G-29" style="edgeStyle=orthogonalEdgeStyle;rounded=0;orthogonalLoop=1;jettySize=auto;html=1;exitX=0.5;exitY=1;exitDx=0;exitDy=0;entryX=1;entryY=0.5;entryDx=0;entryDy=0;" edge="1" parent="1" source="e0GezqwCtZijVtyDzx-G-30" target="e0GezqwCtZijVtyDzx-G-62">
          <mxGeometry relative="1" as="geometry" />
        </mxCell>
        <mxCell id="e0GezqwCtZijVtyDzx-G-30" value="Output Error" style="shape=parallelogram;perimeter=parallelogramPerimeter;whiteSpace=wrap;html=1;fixedSize=1;" vertex="1" parent="1">
          <mxGeometry x="1329" y="350" width="120" height="60" as="geometry" />
        </mxCell>
        <mxCell id="e0GezqwCtZijVtyDzx-G-31" style="edgeStyle=orthogonalEdgeStyle;rounded=0;orthogonalLoop=1;jettySize=auto;html=1;exitX=0.5;exitY=1;exitDx=0;exitDy=0;entryX=0;entryY=0.5;entryDx=0;entryDy=0;" edge="1" parent="1" source="e0GezqwCtZijVtyDzx-G-32" target="e0GezqwCtZijVtyDzx-G-48">
          <mxGeometry relative="1" as="geometry" />
        </mxCell>
        <mxCell id="e0GezqwCtZijVtyDzx-G-32" value="Output F !" style="shape=parallelogram;perimeter=parallelogramPerimeter;whiteSpace=wrap;html=1;fixedSize=1;" vertex="1" parent="1">
          <mxGeometry x="40" y="510" width="120" height="60" as="geometry" />
        </mxCell>
        <mxCell id="e0GezqwCtZijVtyDzx-G-33" style="edgeStyle=orthogonalEdgeStyle;rounded=0;orthogonalLoop=1;jettySize=auto;html=1;exitX=0.5;exitY=1;exitDx=0;exitDy=0;entryX=1;entryY=0.5;entryDx=0;entryDy=0;" edge="1" parent="1" source="e0GezqwCtZijVtyDzx-G-34" target="e0GezqwCtZijVtyDzx-G-48">
          <mxGeometry relative="1" as="geometry" />
        </mxCell>
        <mxCell id="e0GezqwCtZijVtyDzx-G-34" value="Output D !" style="shape=parallelogram;perimeter=parallelogramPerimeter;whiteSpace=wrap;html=1;fixedSize=1;" vertex="1" parent="1">
          <mxGeometry x="200" y="510" width="120" height="60" as="geometry" />
        </mxCell>
        <mxCell id="e0GezqwCtZijVtyDzx-G-35" style="edgeStyle=orthogonalEdgeStyle;rounded=0;orthogonalLoop=1;jettySize=auto;html=1;exitX=0.5;exitY=1;exitDx=0;exitDy=0;entryX=0;entryY=0.5;entryDx=0;entryDy=0;" edge="1" parent="1" source="e0GezqwCtZijVtyDzx-G-36" target="e0GezqwCtZijVtyDzx-G-50">
          <mxGeometry relative="1" as="geometry" />
        </mxCell>
        <mxCell id="e0GezqwCtZijVtyDzx-G-36" value="Output D+ !" style="shape=parallelogram;perimeter=parallelogramPerimeter;whiteSpace=wrap;html=1;fixedSize=1;" vertex="1" parent="1">
          <mxGeometry x="360" y="510" width="120" height="60" as="geometry" />
        </mxCell>
        <mxCell id="e0GezqwCtZijVtyDzx-G-37" style="edgeStyle=orthogonalEdgeStyle;rounded=0;orthogonalLoop=1;jettySize=auto;html=1;exitX=0.5;exitY=1;exitDx=0;exitDy=0;entryX=1;entryY=0.5;entryDx=0;entryDy=0;" edge="1" parent="1" source="e0GezqwCtZijVtyDzx-G-38" target="e0GezqwCtZijVtyDzx-G-50">
          <mxGeometry relative="1" as="geometry" />
        </mxCell>
        <mxCell id="e0GezqwCtZijVtyDzx-G-38" value="Output C !" style="shape=parallelogram;perimeter=parallelogramPerimeter;whiteSpace=wrap;html=1;fixedSize=1;" vertex="1" parent="1">
          <mxGeometry x="520" y="510" width="120" height="60" as="geometry" />
        </mxCell>
        <mxCell id="e0GezqwCtZijVtyDzx-G-39" style="edgeStyle=orthogonalEdgeStyle;rounded=0;orthogonalLoop=1;jettySize=auto;html=1;exitX=0.5;exitY=1;exitDx=0;exitDy=0;entryX=0;entryY=0.5;entryDx=0;entryDy=0;" edge="1" parent="1" source="e0GezqwCtZijVtyDzx-G-40" target="e0GezqwCtZijVtyDzx-G-52">
          <mxGeometry relative="1" as="geometry" />
        </mxCell>
        <mxCell id="e0GezqwCtZijVtyDzx-G-40" value="Output C+ !" style="shape=parallelogram;perimeter=parallelogramPerimeter;whiteSpace=wrap;html=1;fixedSize=1;" vertex="1" parent="1">
          <mxGeometry x="680" y="510" width="120" height="60" as="geometry" />
        </mxCell>
        <mxCell id="e0GezqwCtZijVtyDzx-G-41" style="edgeStyle=orthogonalEdgeStyle;rounded=0;orthogonalLoop=1;jettySize=auto;html=1;exitX=0.5;exitY=1;exitDx=0;exitDy=0;entryX=1;entryY=0.5;entryDx=0;entryDy=0;" edge="1" parent="1" source="e0GezqwCtZijVtyDzx-G-42" target="e0GezqwCtZijVtyDzx-G-52">
          <mxGeometry relative="1" as="geometry" />
        </mxCell>
        <mxCell id="e0GezqwCtZijVtyDzx-G-42" value="Output B !" style="shape=parallelogram;perimeter=parallelogramPerimeter;whiteSpace=wrap;html=1;fixedSize=1;" vertex="1" parent="1">
          <mxGeometry x="840" y="510" width="120" height="60" as="geometry" />
        </mxCell>
        <mxCell id="e0GezqwCtZijVtyDzx-G-43" style="edgeStyle=orthogonalEdgeStyle;rounded=0;orthogonalLoop=1;jettySize=auto;html=1;exitX=0.5;exitY=1;exitDx=0;exitDy=0;entryX=0;entryY=0.5;entryDx=0;entryDy=0;" edge="1" parent="1" source="e0GezqwCtZijVtyDzx-G-44" target="e0GezqwCtZijVtyDzx-G-54">
          <mxGeometry relative="1" as="geometry" />
        </mxCell>
        <mxCell id="e0GezqwCtZijVtyDzx-G-44" value="Output B+ !" style="shape=parallelogram;perimeter=parallelogramPerimeter;whiteSpace=wrap;html=1;fixedSize=1;" vertex="1" parent="1">
          <mxGeometry x="1000" y="510" width="120" height="60" as="geometry" />
        </mxCell>
        <mxCell id="e0GezqwCtZijVtyDzx-G-45" style="edgeStyle=orthogonalEdgeStyle;rounded=0;orthogonalLoop=1;jettySize=auto;html=1;exitX=0.5;exitY=1;exitDx=0;exitDy=0;entryX=1;entryY=0.5;entryDx=0;entryDy=0;" edge="1" parent="1" source="e0GezqwCtZijVtyDzx-G-46" target="e0GezqwCtZijVtyDzx-G-54">
          <mxGeometry relative="1" as="geometry" />
        </mxCell>
        <mxCell id="e0GezqwCtZijVtyDzx-G-46" value="Output A !" style="shape=parallelogram;perimeter=parallelogramPerimeter;whiteSpace=wrap;html=1;fixedSize=1;" vertex="1" parent="1">
          <mxGeometry x="1163" y="510" width="120" height="60" as="geometry" />
        </mxCell>
        <mxCell id="e0GezqwCtZijVtyDzx-G-47" style="edgeStyle=orthogonalEdgeStyle;rounded=0;orthogonalLoop=1;jettySize=auto;html=1;exitX=0.5;exitY=1;exitDx=0;exitDy=0;entryX=0;entryY=0.5;entryDx=0;entryDy=0;" edge="1" parent="1" source="e0GezqwCtZijVtyDzx-G-48" target="e0GezqwCtZijVtyDzx-G-56">
          <mxGeometry relative="1" as="geometry" />
        </mxCell>
        <mxCell id="e0GezqwCtZijVtyDzx-G-48" value="" style="ellipse;whiteSpace=wrap;html=1;aspect=fixed;" vertex="1" parent="1">
          <mxGeometry x="176" y="590" width="10" height="10" as="geometry" />
        </mxCell>
        <mxCell id="e0GezqwCtZijVtyDzx-G-49" style="edgeStyle=orthogonalEdgeStyle;rounded=0;orthogonalLoop=1;jettySize=auto;html=1;exitX=0.5;exitY=1;exitDx=0;exitDy=0;entryX=1;entryY=0.5;entryDx=0;entryDy=0;" edge="1" parent="1" source="e0GezqwCtZijVtyDzx-G-50" target="e0GezqwCtZijVtyDzx-G-56">
          <mxGeometry relative="1" as="geometry" />
        </mxCell>
        <mxCell id="e0GezqwCtZijVtyDzx-G-50" value="" style="ellipse;whiteSpace=wrap;html=1;aspect=fixed;" vertex="1" parent="1">
          <mxGeometry x="496" y="590" width="10" height="10" as="geometry" />
        </mxCell>
        <mxCell id="e0GezqwCtZijVtyDzx-G-51" style="edgeStyle=orthogonalEdgeStyle;rounded=0;orthogonalLoop=1;jettySize=auto;html=1;exitX=0.5;exitY=1;exitDx=0;exitDy=0;entryX=0;entryY=0.5;entryDx=0;entryDy=0;" edge="1" parent="1" source="e0GezqwCtZijVtyDzx-G-52" target="e0GezqwCtZijVtyDzx-G-58">
          <mxGeometry relative="1" as="geometry" />
        </mxCell>
        <mxCell id="e0GezqwCtZijVtyDzx-G-52" value="" style="ellipse;whiteSpace=wrap;html=1;aspect=fixed;" vertex="1" parent="1">
          <mxGeometry x="816" y="590" width="10" height="10" as="geometry" />
        </mxCell>
        <mxCell id="e0GezqwCtZijVtyDzx-G-53" style="edgeStyle=orthogonalEdgeStyle;rounded=0;orthogonalLoop=1;jettySize=auto;html=1;exitX=0.5;exitY=1;exitDx=0;exitDy=0;entryX=1;entryY=0.5;entryDx=0;entryDy=0;" edge="1" parent="1" source="e0GezqwCtZijVtyDzx-G-54" target="e0GezqwCtZijVtyDzx-G-58">
          <mxGeometry relative="1" as="geometry" />
        </mxCell>
        <mxCell id="e0GezqwCtZijVtyDzx-G-54" value="" style="ellipse;whiteSpace=wrap;html=1;aspect=fixed;" vertex="1" parent="1">
          <mxGeometry x="1136" y="590" width="10" height="10" as="geometry" />
        </mxCell>
        <mxCell id="e0GezqwCtZijVtyDzx-G-55" style="edgeStyle=orthogonalEdgeStyle;rounded=0;orthogonalLoop=1;jettySize=auto;html=1;exitX=0.5;exitY=1;exitDx=0;exitDy=0;entryX=0;entryY=0.5;entryDx=0;entryDy=0;" edge="1" parent="1" source="e0GezqwCtZijVtyDzx-G-56" target="e0GezqwCtZijVtyDzx-G-60">
          <mxGeometry relative="1" as="geometry" />
        </mxCell>
        <mxCell id="e0GezqwCtZijVtyDzx-G-56" value="" style="ellipse;whiteSpace=wrap;html=1;aspect=fixed;" vertex="1" parent="1">
          <mxGeometry x="336" y="630" width="10" height="10" as="geometry" />
        </mxCell>
        <mxCell id="e0GezqwCtZijVtyDzx-G-57" style="edgeStyle=orthogonalEdgeStyle;rounded=0;orthogonalLoop=1;jettySize=auto;html=1;exitX=0.5;exitY=1;exitDx=0;exitDy=0;entryX=1;entryY=0.5;entryDx=0;entryDy=0;" edge="1" parent="1" source="e0GezqwCtZijVtyDzx-G-58" target="e0GezqwCtZijVtyDzx-G-60">
          <mxGeometry relative="1" as="geometry" />
        </mxCell>
        <mxCell id="e0GezqwCtZijVtyDzx-G-58" value="" style="ellipse;whiteSpace=wrap;html=1;aspect=fixed;" vertex="1" parent="1">
          <mxGeometry x="976" y="630" width="10" height="10" as="geometry" />
        </mxCell>
        <mxCell id="e0GezqwCtZijVtyDzx-G-59" style="edgeStyle=orthogonalEdgeStyle;rounded=0;orthogonalLoop=1;jettySize=auto;html=1;exitX=0.5;exitY=1;exitDx=0;exitDy=0;entryX=0.5;entryY=0;entryDx=0;entryDy=0;" edge="1" parent="1" source="e0GezqwCtZijVtyDzx-G-60" target="e0GezqwCtZijVtyDzx-G-62">
          <mxGeometry relative="1" as="geometry" />
        </mxCell>
        <mxCell id="e0GezqwCtZijVtyDzx-G-60" value="" style="ellipse;whiteSpace=wrap;html=1;aspect=fixed;" vertex="1" parent="1">
          <mxGeometry x="656" y="670" width="10" height="10" as="geometry" />
        </mxCell>
        <mxCell id="e0GezqwCtZijVtyDzx-G-61" value="" style="edgeStyle=orthogonalEdgeStyle;rounded=0;orthogonalLoop=1;jettySize=auto;html=1;" edge="1" parent="1" source="e0GezqwCtZijVtyDzx-G-62" target="e0GezqwCtZijVtyDzx-G-63">
          <mxGeometry relative="1" as="geometry" />
        </mxCell>
        <mxCell id="e0GezqwCtZijVtyDzx-G-62" value="" style="ellipse;whiteSpace=wrap;html=1;aspect=fixed;" vertex="1" parent="1">
          <mxGeometry x="656" y="750" width="10" height="10" as="geometry" />
        </mxCell>
        <mxCell id="e0GezqwCtZijVtyDzx-G-63" value="End" style="ellipse;whiteSpace=wrap;html=1;" vertex="1" parent="1">
          <mxGeometry x="601" y="830" width="120" height="80" as="geometry" />
        </mxCell>
      </root>
    </mxGraphModel>
  </diagram>
</mxfile>
